<?xml version="1.0" standalone="no"?>
<!DOCTYPE svg PUBLIC "-//W3C//DTD SVG 20010904//EN"
 "http://www.w3.org/TR/2001/REC-SVG-20010904/DTD/svg10.dtd">
<svg version="1.0" xmlns="http://www.w3.org/2000/svg"
 width="1024.000000pt" height="1024.000000pt" viewBox="0 0 1024.000000 1024.000000"
 preserveAspectRatio="xMidYMid meet">

<g transform="translate(0.000000,1024.000000) scale(0.100000,-0.100000)"
fill="#000000" stroke="none">
<path d="M851 7016 c-14 -8 -28 -22 -32 -32 -13 -32 -10 -310 3 -339 17 -38
58 -55 133 -55 60 0 69 3 96 29 l29 29 0 171 0 170 -26 20 c-22 17 -41 21
-103 21 -45 -1 -86 -6 -100 -14z"/>
<path d="M1869 7000 l-30 -29 2 -147 c0 -80 5 -159 11 -176 14 -40 55 -58 133
-58 59 0 70 3 94 28 25 24 28 37 34 115 4 48 4 125 1 172 -9 113 -22 125 -136
125 -75 0 -81 -2 -109 -30z"/>
<path d="M591 6834 c-101 -27 -185 -109 -211 -204 -7 -26 -10 -293 -8 -787 l3
-748 24 -53 c30 -66 104 -134 177 -161 54 -21 72 -21 888 -21 929 0 887 -3
982 69 33 25 59 56 79 96 l30 59 0 775 c0 868 5 807 -72 892 -57 63 -122 92
-220 97 l-83 5 0 -115 c0 -126 -11 -156 -73 -202 -42 -31 -177 -36 -241 -8
-73 33 -86 64 -86 205 l0 117 -315 0 -315 0 0 -110 c0 -180 -31 -221 -177
-228 -99 -5 -158 13 -198 59 -24 29 -25 36 -25 155 l0 124 -52 -1 c-29 0 -77
-7 -107 -15z m1634 -517 c53 -24 74 -44 96 -92 17 -37 19 -76 19 -520 0 -315
-4 -494 -11 -520 -13 -49 -51 -91 -98 -107 -28 -10 -203 -13 -781 -13 l-745 0
-43 23 c-79 42 -77 28 -77 602 0 502 0 505 22 546 33 61 81 87 178 95 44 3
377 6 740 5 611 -1 663 -2 700 -19z"/>
<path d="M1608 5853 l-278 -277 -128 127 c-97 95 -135 127 -154 127 -32 0
-118 -89 -118 -122 0 -15 56 -78 189 -211 154 -155 193 -189 216 -189 23 0 82
54 353 325 378 378 363 354 268 444 -30 29 -58 53 -63 53 -4 0 -133 -125 -285
-277z"/>
<path d="M7337 6745 c-115 -18 -210 -35 -213 -37 -3 -4 -34 -216 -34 -235 0
-2 -38 -3 -85 -3 l-84 0 -6 -32 c-3 -18 -13 -86 -23 -150 l-19 -118 85 0 84 0
-6 -32 c-25 -134 -96 -675 -96 -729 0 -167 98 -274 286 -311 112 -22 397 -9
426 20 8 8 38 196 38 243 l0 31 -42 -9 c-24 -4 -76 -8 -116 -8 -132 0 -134 13
-67 476 25 171 45 312 45 315 0 2 65 4 145 4 170 0 155 -13 180 145 8 55 18
112 21 128 l6 27 -157 0 c-144 0 -156 1 -151 18 3 9 12 69 21 132 8 63 17 125
19 138 4 29 3 29 -257 -13z"/>
<path d="M3587 6504 c-310 -56 -540 -289 -634 -642 -23 -84 -27 -118 -27 -252
-1 -138 2 -163 23 -229 75 -229 312 -355 631 -337 110 6 250 33 315 60 l38 16
-5 145 c-3 80 -8 148 -11 151 -3 4 -42 -1 -87 -10 -44 -9 -123 -16 -176 -16
-134 0 -184 23 -228 105 -18 35 -21 56 -21 160 1 133 17 208 65 311 97 203
272 273 521 209 34 -9 62 -15 63 -13 3 4 76 285 76 291 0 10 -95 36 -184 52
-108 18 -254 18 -359 -1z"/>
<path d="M4566 6505 c-119 -15 -283 -52 -292 -66 -8 -13 -37 -260 -31 -266 3
-3 48 5 99 18 125 31 376 34 451 6 66 -26 99 -72 99 -137 0 -28 -1 -53 -3 -55
-2 -2 -74 -11 -159 -20 -257 -27 -388 -63 -504 -140 -184 -122 -277 -393 -194
-564 95 -197 418 -274 842 -201 173 30 366 92 366 118 0 4 27 203 60 442 64
465 70 547 43 631 -33 102 -145 188 -295 225 -89 21 -345 27 -482 9z m297
-772 c-32 -241 -53 -376 -57 -381 -4 -3 -59 -8 -124 -10 -98 -3 -123 0 -152
15 -51 26 -72 74 -67 148 7 100 58 174 146 211 41 17 168 42 222 43 33 1 35
-1 32 -26z"/>
<path d="M6030 6514 c-115 -14 -245 -38 -346 -64 -126 -33 -154 -44 -154 -63
0 -7 -13 -105 -30 -217 -16 -113 -54 -385 -85 -605 -30 -220 -57 -413 -60
-428 l-5 -29 63 6 c34 4 138 11 232 17 93 5 171 12 174 15 2 2 35 230 73 506
37 277 70 508 72 514 7 18 138 37 221 32 55 -2 81 -9 102 -24 61 -45 61 -33
-6 -507 -34 -238 -64 -448 -67 -467 l-5 -35 228 3 c125 2 229 5 230 5 0 1 33
214 73 472 78 509 82 569 43 656 -43 96 -122 156 -258 194 -45 13 -109 18
-260 20 -110 2 -216 1 -235 -1z"/>
<path d="M7919 6463 c-5 -33 189 -1343 201 -1357 10 -14 44 -16 219 -16 113 0
229 3 257 6 l50 6 214 457 c257 549 388 839 396 880 l7 31 -209 0 -209 0 -137
-353 c-76 -193 -164 -422 -195 -507 l-58 -155 -6 90 c-4 50 -17 278 -30 508
l-23 417 -238 0 c-131 0 -239 -3 -239 -7z"/>
<path d="M6215 4989 c-864 -37 -1662 -161 -2385 -369 -521 -150 -977 -356
-1262 -568 -89 -66 -102 -81 -92 -107 8 -20 8 -20 115 26 223 98 611 231 894
308 581 157 1728 342 2515 406 402 32 530 38 560 27 14 -5 35 -6 48 -1 12 5
22 5 22 1 0 -5 12 -7 28 -6 15 1 41 3 57 4 43 3 581 -9 700 -15 746 -39 1540
-119 2127 -216 97 -16 183 -26 190 -24 7 3 23 23 35 44 28 48 27 49 -97 96
-201 77 -537 164 -884 230 -728 137 -1722 201 -2571 164z"/>
<path d="M3700 3616 l0 -496 113 0 112 0 -3 170 -3 170 68 0 68 0 104 -170
104 -170 119 0 c65 0 118 3 118 6 0 8 -21 44 -138 227 -52 82 -93 149 -91 151
2 1 21 13 41 25 93 56 141 152 140 278 -2 128 -55 217 -161 267 l-66 31 -262
3 -263 3 0 -495z m447 305 c104 -48 104 -203 0 -258 -21 -11 -64 -18 -129 -21
l-98 -4 0 151 0 151 93 0 c69 0 103 -5 134 -19z"/>
<path d="M4854 3890 c-128 -19 -241 -110 -283 -230 -54 -153 -14 -362 86 -451
124 -108 365 -140 510 -67 l47 23 -3 75 c-1 41 -4 76 -6 78 -1 2 -31 -7 -66
-18 -79 -27 -190 -36 -246 -21 -52 14 -101 55 -119 98 -28 66 -39 63 231 63
l244 0 7 36 c13 71 -1 188 -30 248 -61 124 -210 191 -372 166z m166 -185 c27
-26 50 -78 50 -112 0 -10 -38 -13 -156 -13 l-156 0 6 23 c3 12 6 27 6 34 0 20
52 75 85 89 17 9 52 13 83 11 41 -3 59 -10 82 -32z"/>
<path d="M5594 3890 c-109 -16 -190 -75 -219 -158 -19 -58 -19 -103 1 -150 32
-77 90 -117 221 -153 97 -27 131 -44 144 -73 14 -30 -2 -63 -37 -76 -60 -23
-191 -4 -306 44 -18 8 -21 -3 -33 -102 l-7 -52 54 -24 c70 -31 192 -50 271
-43 175 17 266 101 267 245 0 136 -57 193 -246 241 -100 26 -124 42 -124 86 0
45 29 65 95 65 44 0 147 -23 196 -44 13 -6 18 6 28 70 15 89 18 86 -79 108
-87 20 -164 26 -226 16z"/>
<path d="M6340 3889 c-123 -21 -227 -104 -272 -217 -19 -48 -23 -76 -23 -172
0 -106 2 -120 29 -177 73 -158 261 -245 466 -215 43 6 99 21 124 33 l46 21 0
74 c0 40 -4 75 -9 78 -5 3 -35 -4 -67 -15 -34 -12 -96 -23 -144 -26 -79 -4
-89 -3 -140 24 -55 28 -82 61 -95 116 l-7 27 250 0 250 0 6 63 c17 171 -60
314 -198 366 -66 24 -147 32 -216 20z m149 -167 c38 -19 71 -72 71 -114 l0
-28 -154 0 -154 0 8 37 c17 74 79 123 155 123 22 0 55 -8 74 -18z"/>
<path d="M8505 3894 c-11 -2 -44 -9 -74 -15 -30 -6 -75 -20 -99 -30 l-45 -20
6 -75 c3 -42 7 -78 10 -80 2 -2 26 6 53 18 67 30 235 38 286 14 39 -19 58 -51
58 -96 0 -30 0 -30 -57 -30 -138 0 -296 -42 -352 -93 -62 -57 -80 -176 -38
-257 45 -89 155 -140 273 -125 54 6 174 59 174 76 0 25 20 5 26 -26 l6 -35 90
0 89 0 -3 293 -3 294 -30 48 c-35 57 -88 96 -159 118 -53 17 -177 29 -211 21z
m203 -506 c-3 -81 -4 -83 -36 -105 -127 -85 -299 22 -204 128 31 35 102 57
190 58 l53 1 -3 -82z"/>
<path d="M9273 3889 c-206 -40 -293 -245 -159 -374 43 -42 79 -58 204 -95 40
-12 82 -30 93 -41 27 -27 24 -64 -8 -89 -47 -37 -177 -22 -314 34 -14 6 -18
-2 -23 -41 -4 -26 -9 -62 -12 -80 -6 -29 -3 -33 35 -53 94 -48 265 -62 373
-30 52 15 119 68 145 115 61 109 25 253 -76 304 -20 11 -77 31 -125 45 -100
29 -131 46 -141 76 -9 28 18 68 51 76 39 10 132 -1 196 -24 l56 -20 6 22 c3
12 8 47 12 77 6 52 5 55 -20 67 -32 14 -187 42 -225 41 -14 -1 -45 -5 -68 -10z"/>
<path d="M7221 3873 c-24 -9 -64 -35 -87 -59 l-43 -42 -3 46 -3 47 -98 3 -99
3 3 -376 4 -375 102 0 103 0 0 225 c0 241 3 256 52 302 34 32 91 53 143 53 52
0 51 -3 34 115 -11 72 -13 75 -38 74 -14 0 -46 -8 -70 -16z"/>
<path d="M7547 3503 c79 -203 148 -372 152 -376 4 -4 56 -6 115 -5 l108 3 69
180 c88 229 195 513 204 543 6 22 6 22 -104 22 l-110 0 -55 -172 c-30 -95 -67
-216 -82 -268 -27 -92 -44 -131 -44 -99 0 8 -38 133 -85 277 l-86 262 -113 0
-114 0 145 -367z"/>
</g>
</svg>
