<svg width="900" height="510" xmlns="http://www.w3.org/2000/svg" preserveAspectRatio="xMidYMid meet" class="h-full w-full text-transparent bg-clip-text bg-gradient-to-r from-secondary to-base-content fill-current" version="1.0">
 <metadata>Created by potrace 1.16, written by Peter Selinger 2001-2019</metadata>

 <g>
  <title>Layer 1</title>
  <g id="svg_1" fill="#000000" transform="translate(0 1024) scale(0.1 -0.1)">
   <path id="svg_2" d="m1800,10139c-19,-11 -41,-17 -48,-14c-8,3 -10,0 -6,-7c5,-8 2,-9 -10,-5c-9,4 -15,3 -12,-2c7,-10 -257,-132 -276,-128c-7,2 -9,2 -4,-1c13,-7 -156,-83 -171,-77c-8,2 -12,1 -9,-4c7,-11 -22,-23 -36,-14c-6,3 -8,2 -5,-4c8,-13 -178,-97 -194,-87c-7,4 -10,3 -6,-3c8,-13 -87,-58 -104,-48c-7,5 -10,4 -6,-2c9,-14 -110,-72 -155,-76c-9,-1 -15,-4 -12,-8c2,-4 -20,-16 -49,-28l-52,-21l0,-272c0,-208 -3,-272 -12,-275c-7,-3 -13,-9 -13,-14c0,-6 5,-7 10,-4c6,4 10,-7 10,-24c0,-38 7,-38 71,-6c27,14 55,23 62,19c7,-4 9,-4 5,1c-10,10 152,87 169,81c8,-3 12,-2 9,3c-3,5 10,15 30,23c34,14 41,13 88,-7c132,-57 155,-68 151,-75c-3,-4 1,-8 8,-7c6,0 21,-1 32,-3c15,-2 13,-4 -10,-10c-28,-8 -27,-8 12,-7c44,1 126,-30 117,-44c-3,-5 2,-6 10,-3c8,3 43,-9 77,-26c77,-38 83,-44 43,-38c-23,3 -31,1 -27,-9c3,-7 -2,-16 -11,-19c-18,-7 -137,37 -130,48c5,7 -10,12 -28,9c-17,-2 -87,32 -82,40c3,5 -2,6 -10,3c-8,-3 -56,11 -107,32l-93,37l-45,-17c-25,-10 -54,-18 -63,-19c-9,-1 -15,-4 -13,-8c3,-3 -7,-11 -21,-18c-32,-14 -37,-14 -28,2c4,6 -2,3 -13,-8c-22,-23 -52,-39 -173,-91c-47,-20 -127,-57 -179,-81c-52,-24 -100,-42 -108,-39c-9,4 -11,1 -7,-6c5,-8 1,-9 -12,-4c-10,4 -15,4 -11,0c8,-8 -67,-54 -88,-54c-7,0 -15,-4 -17,-8c-1,-4 -21,-15 -43,-23l-40,-15l3,-97c3,-66 0,-97 -7,-97c-6,0 -11,-5 -11,-11c0,-5 5,-7 10,-4c14,8 13,-41 -1,-67c-8,-15 -8,-19 0,-14c7,5 11,-4 11,-24c0,-18 -4,-29 -10,-25c-5,3 -10,-1 -10,-9c0,-9 5,-16 10,-16c6,0 10,-32 10,-77c0,-54 -3,-73 -10,-63c-8,13 -10,12 -10,-2c0,-10 5,-18 10,-18c6,0 10,-15 10,-34c0,-19 -4,-38 -10,-41c-5,-3 -10,-14 -9,-23c0,-14 2,-13 9,3c7,16 9,11 9,-20c1,-29 -2,-36 -9,-25c-8,13 -10,12 -10,-2c0,-10 5,-18 10,-18c15,0 13,-147 -2,-153c-10,-4 -10,-6 0,-6c9,-1 12,-55 11,-238c-1,-132 -5,-220 -9,-198c-7,39 -7,39 -8,-15c-1,-39 1,-51 8,-40c6,10 9,-39 8,-145c-1,-113 -3,-142 -8,-100l-7,60l-1,-62c-1,-37 2,-63 8,-63c6,0 10,-107 10,-300l0,-300l-40,-25c-22,-14 -43,-25 -47,-25c-12,0 -63,-53 -63,-66c0,-6 26,-19 58,-28c79,-24 79,-24 59,-25c-15,-1 -16,-3 -5,-14c7,-8 21,-14 30,-14c14,0 15,3 6,14c-10,12 -6,13 28,7c21,-4 40,-10 42,-14c1,-4 13,-5 25,-3c12,2 55,-5 94,-15c61,-15 71,-21 60,-33c-10,-12 -10,-12 3,-1c21,18 50,15 50,-5c0,-14 2,-15 9,-4c7,11 20,11 77,1c89,-16 223,-27 226,-18c4,8 374,63 528,78c63,6 130,13 148,16c23,3 32,2 27,-5c-3,-6 -1,-11 4,-11c6,0 11,5 11,11c0,7 15,10 39,7c22,-2 37,0 35,4c-3,5 10,8 28,8c18,1 92,5 163,10c72,6 186,12 255,15c69,3 170,10 225,15c55,5 197,9 317,7c119,-1 214,1 211,6c-2,4 32,7 75,7l80,0l7,66c4,36 4,69 0,72c-4,4 -63,6 -131,4l-124,-3l-2,563l-3,563l-28,-43c-16,-25 -32,-40 -39,-36c-7,4 -8,3 -4,-5c5,-7 -26,-61 -75,-134c-46,-67 -97,-142 -113,-167c-17,-25 -34,-46 -38,-48c-5,-2 -8,-10 -8,-17c0,-7 -4,-15 -9,-17c-4,-1 -29,-36 -55,-76c-25,-39 -52,-71 -58,-70c-7,2 -12,-3 -10,-11c4,-18 -18,-42 -31,-34c-6,3 -7,1 -3,-5c8,-14 -49,-101 -67,-103c-46,-5 -113,41 -102,69c2,7 1,10 -5,7c-11,-7 -32,30 -22,40c4,3 1,5 -6,3c-8,-2 -19,6 -25,17c-7,10 -18,25 -24,33c-16,17 -17,36 -1,26c7,-5 8,-3 4,5c-5,7 -10,10 -13,7c-7,-6 -83,100 -83,115c0,6 6,7 13,3c7,-4 9,-3 4,2c-5,5 -12,9 -17,9c-8,0 -80,89 -80,99c0,6 -44,75 -61,94c-6,7 -8,20 -5,28c3,8 2,13 -3,9c-7,-4 -91,107 -91,121c0,2 -16,29 -36,59c-22,36 -33,63 -29,75c3,10 0,22 -6,26c-9,5 -10,2 -6,-12c25,-71 -77,121 -138,261c-41,93 -49,339 -14,470c41,158 138,310 253,395c31,22 58,40 61,40c4,0 22,12 40,26c24,18 41,24 57,19c15,-4 19,-3 10,3c-10,7 -6,12 16,21c23,10 29,17 24,33c-3,14 -1,19 6,14c7,-4 12,-2 12,3c0,6 -4,11 -10,11c-5,0 -10,16 -10,36c0,21 4,33 10,29c6,-3 10,-1 10,4c0,6 -4,11 -10,11c-6,0 -10,112 -10,315c0,245 3,315 13,315c19,0 68,-36 60,-44c-4,-4 0,-4 10,0c12,4 17,1 17,-12c0,-16 2,-17 10,-4c9,14 14,7 11,-13c-1,-5 3,-6 9,-2c5,3 33,-6 60,-21c36,-20 47,-30 38,-36c-9,-6 -7,-8 7,-4c20,5 101,-37 98,-51c-1,-5 1,-10 4,-13c4,-3 3,1 -1,8c-4,6 -4,12 0,12c10,0 204,-119 220,-135c11,-11 14,-59 14,-232l1,-218l69,-48c39,-27 70,-52 70,-58c0,-5 4,-8 8,-6c14,4 104,-71 92,-76c-6,-3 -5,-4 2,-3c10,2 14,104 16,484l3,482l-32,18c-18,9 -40,25 -51,35c-10,9 -18,14 -18,11c0,-3 -18,5 -40,17c-21,12 -36,27 -33,32c3,6 1,7 -5,3c-13,-8 -56,17 -46,26c3,3 -1,5 -8,5c-7,-1 -75,34 -151,78c-76,44 -153,89 -173,99c-25,14 -31,22 -22,29c9,6 8,7 -4,3c-11,-3 -54,16 -111,49c-52,30 -99,55 -105,55c-7,0 -12,5 -12,10c0,15 -30,10 -70,-11zm-950,-1737l0,-168l-83,-27c-46,-15 -86,-27 -90,-27c-4,0 -7,72 -7,159l0,159l88,35c48,20 88,36 90,37c1,0 2,-76 2,-168zm-320,11c0,-10 1,-40 3,-68c1,-27 0,-84 -3,-127c-3,-42 -2,-74 2,-72c5,3 8,1 8,-3c0,-5 -32,-18 -70,-30l-71,-20l3,148c2,82 6,149 10,149c4,1 27,9 50,20c55,24 67,24 68,3zm318,-658c-3,-91 -7,-167 -10,-170c-3,-3 -43,-12 -89,-20c-46,-8 -84,-15 -84,-15c0,0 1,72 3,159c3,139 5,160 20,166c17,7 138,41 156,44c4,0 6,-73 4,-164zm-313,-69c0,-79 -2,-147 -5,-149c-3,-3 -33,-9 -67,-14l-63,-10l0,139c0,136 0,138 20,128c12,-6 20,-7 20,-1c0,5 -6,11 -12,14c-13,4 65,35 92,36c13,1 15,-21 15,-143zm304,-848c0,-200 -3,-370 -7,-378c-6,-12 -37,-16 -165,-19l-157,-3l2,363l3,364l130,16c72,9 145,17 163,18l32,1l-1,-362z"/>
   <path id="svg_3" d="m4067,9084c-1,-1 -38,-5 -82,-8c-44,-3 -98,-11 -120,-16c-22,-6 -50,-13 -63,-16c-12,-2 -38,-13 -57,-24c-19,-11 -35,-17 -35,-15c0,9 -59,-24 -124,-69c-63,-43 -164,-139 -211,-200c-15,-20 -32,-33 -38,-29c-6,3 -7,1 -3,-5c4,-6 -8,-40 -27,-75c-30,-57 -67,-140 -67,-152c0,-3 -7,-22 -15,-42c-21,-55 -44,-161 -46,-213l-2,-45l-7,35l-7,35l-2,-32c0,-17 3,-34 9,-38c5,-3 8,-28 7,-54c-1,-27 -5,-48 -8,-46c-3,2 -6,-15 -6,-38l-1,-42l8,35c6,30 8,31 9,9c0,-15 4,-42 7,-60c4,-26 3,-30 -5,-19c-9,13 -11,12 -11,-5c0,-11 5,-27 10,-35c9,-13 10,-13 10,0c1,17 20,-24 26,-57c6,-30 60,-130 89,-165c14,-16 22,-35 19,-40c-4,-6 -2,-8 3,-5c13,8 109,-70 105,-84c-1,-6 2,-8 7,-4c6,3 34,-5 63,-18c47,-22 82,-32 213,-63c17,-4 35,-6 40,-5c6,2 64,4 130,6c161,4 253,20 373,67c58,23 55,14 35,113c-2,11 -6,43 -9,70c-3,28 -11,56 -17,64c-9,11 -9,15 1,19c10,3 10,7 0,19c-7,9 -13,21 -13,27c0,17 -11,17 -52,-1c-21,-8 -45,-17 -53,-18c-8,-2 -15,-4 -15,-5c0,-1 -9,-3 -20,-6c-11,-2 -33,-7 -50,-10c-37,-8 -156,-9 -209,-1c-46,7 -128,46 -120,58c3,5 -1,6 -9,3c-8,-3 -25,5 -37,18c-82,86 -116,185 -107,313c6,91 25,177 38,169c5,-3 6,2 3,10c-10,26 68,172 86,161c5,-3 7,0 5,7c-8,21 73,93 146,131c114,60 294,69 464,25c22,-6 47,-12 55,-13c8,-2 17,-4 20,-5c3,-1 9,-2 13,-1c5,1 6,-3 3,-8c-4,-5 -2,-12 3,-15c9,-6 27,58 35,124c2,19 12,73 21,119c13,64 14,85 5,91c-7,4 -8,10 -4,12c5,3 3,3 -3,2c-7,-2 -31,3 -53,11c-22,8 -40,12 -40,8c0,-3 -6,-1 -12,5c-18,13 -289,47 -301,36z"/>
   <path id="svg_4" d="m7071,9039c-74,-9 -82,-15 -87,-61c-10,-86 -50,-329 -54,-325c-3,3 -6,-23 -7,-56c-2,-78 -68,-497 -75,-477c-3,8 -3,4 -1,-8c2,-13 -6,-89 -17,-170c-20,-136 -22,-211 -7,-272c10,-36 60,-113 82,-125c11,-6 31,-18 45,-27c14,-9 37,-19 52,-22c15,-2 33,-8 39,-12c6,-4 89,-7 184,-8c95,0 168,2 162,6c-7,5 -3,8 10,8c12,0 25,5 28,10c4,6 11,8 16,4c21,-13 36,17 37,73c1,64 7,119 17,177c7,37 7,38 -16,30c-13,-4 -36,-8 -51,-8c-16,-1 -28,-3 -28,-6c0,-9 -125,-2 -151,9c-44,16 -54,81 -33,201c14,75 21,136 17,143c-3,4 0,13 5,20c5,7 9,19 9,27c0,8 8,55 17,104c8,49 13,93 10,97c-3,5 6,14 20,20c14,7 24,15 22,18c-5,7 90,5 110,-3c8,-3 14,-2 14,3c0,5 11,9 25,9c14,0 25,-4 25,-8c0,-7 92,-3 118,5c6,2 12,15 13,27c1,22 1,22 9,-2c7,-23 8,-23 9,-3c1,12 -3,24 -8,28c-8,4 -7,188 0,232c5,32 -2,34 -132,32c-93,-1 -134,3 -139,11c-6,9 -9,9 -13,-1c-10,-22 0,57 22,184c12,66 21,121 21,123c0,7 -253,2 -319,-7z"/>
   <path id="svg_5" d="m2085,8838c-131,-8 -145,-10 -192,-28c-18,-6 -36,-12 -40,-13c-4,0 -12,-5 -18,-9c-5,-5 -33,-23 -62,-41c-104,-65 -134,-88 -143,-113c-5,-13 -17,-27 -25,-30c-8,-4 -15,-12 -15,-18c0,-7 -8,-21 -18,-32c-31,-34 -90,-190 -97,-254c-6,-60 -8,-194 -3,-210c12,-37 34,-140 30,-140c-3,0 -11,8 -19,18c-14,16 -14,16 -9,-1c3,-10 6,-23 6,-28c0,-6 9,-7 21,-4c15,5 19,4 15,-4c-4,-6 -2,-11 3,-11c6,0 11,-5 11,-10c0,-6 11,-34 25,-62c14,-29 23,-58 21,-65c-3,-7 1,-10 8,-7c6,2 20,-10 29,-28c10,-18 23,-42 30,-53c32,-52 41,-71 38,-84c-1,-7 2,-10 9,-6c12,8 52,-74 43,-90c-4,-5 -3,-7 2,-3c11,10 44,-34 42,-57c-1,-11 4,-20 12,-20c8,0 19,-9 25,-20c6,-11 13,-22 16,-25c7,-7 54,-79 81,-125c13,-22 27,-41 31,-43c4,-2 8,-10 8,-18c0,-8 4,-14 10,-14c5,0 12,-11 16,-25c3,-14 10,-25 15,-25c5,0 13,-8 16,-17c4,-10 22,-37 40,-61c33,-44 42,-72 22,-72c-5,0 -7,-5 -4,-10c4,-6 10,-8 15,-5c4,3 10,-2 14,-10c8,-23 20,-18 40,15c9,17 22,27 28,24c7,-4 8,-2 4,4c-7,13 23,72 36,72c4,0 8,6 8,13c0,13 41,53 51,50c4,-1 5,6 2,15c-6,23 32,66 49,56c10,-5 10,-4 1,6c-8,9 -5,21 14,48c13,20 30,40 36,44c7,4 9,8 4,8c-4,0 24,46 62,103c37,56 76,116 85,132c9,17 39,65 66,108c152,238 197,371 186,552c-7,114 -9,128 -25,170c-6,17 -17,44 -23,60c-37,98 -182,261 -271,306c-23,12 -50,29 -61,38c-10,9 -21,15 -25,14c-6,-2 -97,21 -136,35c-11,4 -74,4 -140,0zm123,-379c19,-6 32,-17 32,-27c0,-15 2,-15 10,-2c8,13 10,12 10,-3c0,-10 5,-15 11,-12c12,8 79,-54 79,-72c0,-7 4,-13 9,-13c9,0 23,-30 26,-60c16,-128 16,-134 -14,-196c-28,-59 -104,-139 -122,-128c-5,3 -9,1 -9,-4c0,-14 -35,-22 -112,-28c-41,-3 -68,0 -68,6c0,5 -7,7 -15,4c-8,-4 -15,-1 -15,7c0,7 -3,10 -6,6c-16,-16 -123,63 -124,91c0,6 -4,12 -9,12c-8,0 -41,70 -41,86c0,3 8,3 18,-1c12,-4 10,0 -6,16c-19,17 -23,29 -19,58c11,81 17,106 27,109c6,2 8,8 4,13c-3,5 0,9 6,9c6,0 9,4 6,9c-8,12 18,32 35,29c9,-2 13,4 11,14c-3,21 84,81 105,74c7,-3 13,-2 13,3c0,12 120,12 158,0z"/>
   <path id="svg_6" d="m4970,8757c-3,-3 -39,-8 -80,-11c-84,-6 -102,-9 -145,-26c-16,-6 -30,-11 -30,-10c0,1 -7,-1 -15,-3c-8,-3 -30,-10 -48,-16c-18,-5 -40,-8 -50,-5c-14,5 -15,4 -2,-5c9,-6 10,-11 3,-11c-6,0 -19,-7 -28,-16c-13,-13 -15,-29 -10,-78c4,-33 8,-63 11,-65c2,-2 -1,-13 -7,-24c-8,-15 -8,-18 1,-12c9,6 11,-2 8,-28c-2,-20 0,-33 4,-31c8,5 12,-11 9,-30c-1,-5 8,-5 21,-1c13,4 33,8 45,9c11,0 19,4 17,8c-2,3 17,13 43,22c165,53 426,44 431,-16c0,-7 4,-37 8,-65l7,-53l-84,-1c-177,-1 -333,-22 -406,-55c-106,-47 -127,-59 -164,-95c-22,-21 -46,-39 -51,-39c-6,0 -8,-3 -5,-7c10,-9 -14,-34 -26,-26c-6,3 -7,1 -3,-5c4,-6 -5,-34 -18,-61c-46,-91 -51,-243 -10,-322c8,-16 12,-34 9,-40c-4,-5 -3,-8 2,-7c5,2 23,-13 41,-33c33,-37 136,-94 191,-105c17,-4 37,-15 44,-25c9,-12 17,-15 27,-8c12,7 12,9 -3,9c-10,0 -16,4 -13,9c4,6 21,5 44,-1c21,-6 71,-8 117,-4c44,4 114,9 156,12c61,4 262,40 329,58c8,2 27,7 42,11c15,4 27,14 27,23c1,18 6,56 15,112c4,19 8,51 11,70c2,19 6,49 9,66c6,33 15,93 21,134c2,14 6,39 9,55c9,49 35,216 45,280c16,117 -7,295 -40,295c-5,0 -9,6 -9,14c0,39 -167,131 -255,141c-83,10 -240,18 -245,12zm153,-712c-3,-13 -13,-27 -24,-30c-12,-4 -16,-12 -12,-22c6,-15 8,-14 15,3c5,12 6,1 3,-30c-3,-27 -5,-61 -6,-75l-1,-26l-8,25c-7,21 -8,22 -9,5c-1,-12 3,-25 8,-30c6,-6 6,-28 -1,-56l-11,-45l-70,-17c-41,-10 -76,-13 -86,-8c-9,5 -22,6 -29,4c-23,-9 -98,18 -125,43c-33,31 -41,61 -32,122c5,37 15,55 46,84c49,47 89,59 218,64c93,4 102,2 91,-12c-11,-12 -11,-15 1,-12c8,2 17,11 21,21c11,25 16,21 11,-8z"/>
   <path id="svg_7" d="m6120,8750c-166,-17 -195,-21 -215,-27c-11,-4 -27,-8 -35,-9c-8,-1 -42,-10 -75,-18c-33,-9 -66,-18 -73,-19c-7,-2 -16,-7 -22,-13c-7,-7 -62,-353 -75,-474c-2,-19 -6,-48 -10,-65c-5,-27 -10,-62 -14,-105c-1,-13 -3,-13 -12,0c-9,12 -10,11 -5,-4c4,-11 3,-52 -1,-90c-6,-61 -8,-66 -13,-36c-4,23 -6,7 -7,-45c-1,-72 -3,-101 -17,-200c-3,-16 -7,-58 -11,-93l-6,-62l187,2c209,3 186,-5 198,78c3,19 8,51 12,70c3,19 7,46 9,60c2,14 13,85 24,158c12,73 23,152 26,175c2,23 7,62 10,87c3,25 8,61 12,80c10,50 11,60 17,105c5,41 9,60 21,106c5,22 14,27 52,33c187,25 292,-17 289,-117c-5,-114 -7,-132 -16,-112c-6,14 -8,1 -7,-40c1,-53 -3,-97 -17,-195c-2,-14 -7,-43 -9,-65c-8,-58 -18,-122 -31,-195c-8,-46 -16,-123 -19,-180l-2,-45l178,0c97,0 177,2 176,5c0,3 4,17 10,32c5,15 13,51 16,80c3,29 8,67 11,83c2,17 6,44 9,60c2,17 11,71 19,120c9,50 17,108 17,130c1,22 5,47 9,55c4,8 11,44 14,79c3,35 8,66 10,70c17,27 25,240 12,301c-8,41 -45,107 -75,134c-11,10 -18,23 -15,28c3,4 2,7 -3,6c-17,-4 -53,14 -47,24c4,7 2,8 -5,4c-6,-4 -17,-3 -24,2c-45,37 -302,60 -477,42z"/>
   <path id="svg_8" d="m7960,8735c-9,-11 -36,-14 -127,-13c-63,1 -116,5 -119,9c-2,4 -13,5 -25,2c-19,-5 -20,-11 -14,-57c4,-28 11,-58 15,-65c4,-8 4,-26 -1,-39c-5,-14 -5,-21 0,-17c12,7 19,-15 26,-79c3,-26 15,-96 26,-155c29,-149 32,-181 19,-181c-6,0 -8,-5 -5,-11c4,-6 10,-8 13,-4c6,6 26,-82 37,-160c2,-16 9,-60 16,-97c6,-37 7,-73 3,-79c-4,-8 -3,-9 4,-5c7,4 12,4 12,-1c0,-12 18,-114 25,-143c7,-29 13,-62 17,-105c1,-16 7,-33 13,-37c5,-4 106,-8 223,-8c190,0 213,2 219,17c6,15 7,15 15,-3c7,-15 7,-14 4,6c-4,17 24,87 93,235c55,115 119,255 144,310c25,55 68,150 97,210c29,61 56,120 61,133c5,13 12,21 16,19c5,-3 8,5 9,16c1,12 29,82 63,156c33,74 61,135 61,136c0,1 -94,1 -210,1c-115,0 -206,-4 -201,-9c4,-4 -3,-29 -15,-55c-13,-26 -24,-53 -24,-60c0,-8 -6,-26 -14,-40c-8,-15 -25,-51 -37,-80c-15,-35 -25,-48 -31,-40c-5,10 -8,10 -8,1c0,-6 4,-14 9,-18c6,-3 -6,-36 -24,-74c-19,-38 -37,-81 -41,-97c-3,-16 -21,-60 -39,-99c-45,-96 -66,-147 -71,-169c-4,-23 -21,-42 -30,-34c-3,4 -12,53 -20,110c-19,133 -21,151 -29,223c-4,33 -9,69 -11,80c-2,11 -6,40 -9,65c-3,25 -8,56 -12,70c-3,14 -7,36 -8,50c-20,191 -17,183 -70,178c-34,-2 -41,0 -33,9c6,7 8,13 5,13c-2,0 -10,-7 -17,-15z"/>
   <path id="svg_9" d="m3220,7032c0,-184 -3,-232 -12,-226c-10,6 -10,5 -1,-7c16,-19 23,-499 8,-499c-5,0 -3,-5 5,-10c8,-5 61,-10 118,-10l103,0l-3,169l-3,170l63,3c34,2 62,-1 62,-5c0,-5 4,-6 9,-3c11,7 93,-140 95,-171c0,-11 4,-19 9,-16c4,2 7,0 7,-6c0,-5 6,-16 13,-23c21,-21 46,-81 39,-93c-12,-19 -10,-34 4,-28c8,3 12,9 9,13c-3,5 6,3 19,-3c16,-8 21,-14 13,-19c-8,-5 -6,-8 6,-8c9,0 17,5 17,10c0,6 40,10 100,10c55,0 100,4 100,9c0,5 -15,31 -32,58c-18,27 -42,66 -52,86c-11,20 -23,37 -28,37c-5,0 -6,5 -3,10c3,6 1,10 -6,10c-6,0 -9,8 -6,20c3,13 1,18 -6,13c-7,-4 -8,0 -4,11c4,9 3,15 -2,11c-13,-7 -54,62 -45,76c4,8 3,9 -4,5c-7,-4 -17,4 -24,20c-10,22 -10,28 0,32c7,2 19,10 26,18c8,8 19,14 24,14c19,0 91,91 105,133c19,57 21,159 5,216c-9,32 -29,62 -69,103c-46,47 -67,60 -125,78c-61,19 -94,22 -302,23l-232,2l0,-233zm261,46c0,-10 2,-10 6,0c2,6 16,12 29,12c13,0 24,-6 24,-12c0,-10 2,-10 8,-2c12,20 152,-10 152,-32c0,-3 -5,-2 -12,2c-7,4 -8,3 -4,-4c4,-6 13,-9 20,-6c14,6 19,-4 31,-63c12,-62 -35,-159 -82,-168c-10,-2 -18,-4 -18,-5c0,-7 -183,-15 -190,-9c-3,4 -9,252 -6,287c1,6 10,12 21,12c11,0 20,-6 21,-12z"/>
   <path id="svg_10" d="m4260,7022c6,-2 -13,-16 -42,-31c-61,-31 -105,-70 -137,-124c-13,-20 -27,-34 -33,-31c-7,4 -8,2 -4,-4c4,-6 -1,-40 -10,-74c-25,-96 -16,-206 23,-290c17,-37 28,-69 25,-73c-4,-4 -2,-5 3,-4c6,2 27,-12 48,-31c27,-25 34,-36 25,-43c-9,-5 -6,-6 8,-3c11,4 36,-2 55,-11c47,-24 52,-25 155,-30c104,-5 188,7 250,39c47,23 52,37 35,108c-8,37 -4,63 8,56c4,-3 8,1 8,8c0,16 -31,10 -64,-12c-13,-8 -23,-10 -23,-6c0,5 -4,4 -8,-2c-11,-18 -150,-38 -205,-30c-53,8 -122,59 -113,83c3,8 2,12 -3,9c-6,-4 -31,42 -31,58c0,4 443,-3 455,-8c9,-3 13,-2 10,4c-3,6 -1,10 5,10c8,0 10,27 6,93c-6,106 -15,142 -50,202c-14,23 -22,46 -18,50c4,3 3,5 -3,3c-5,-1 -30,11 -55,28c-25,17 -58,35 -75,39l-30,8l25,7c14,4 -37,7 -113,6c-76,0 -133,-2 -127,-4zm185,-179c19,-9 35,-21 35,-26c0,-5 -6,-4 -13,2c-16,12 -27,5 -27,-18c0,-11 3,-12 8,-4c12,18 43,9 57,-17c24,-44 13,-48 -131,-49l-134,-1l0,24c0,13 10,36 22,51c41,53 118,69 183,38z"/>
   <path id="svg_11" d="m4985,7016c-22,-6 -46,-15 -52,-19c-12,-8 -17,-2 -14,16c1,5 -3,6 -9,2c-6,-3 -8,-11 -5,-16c4,-5 1,-10 -4,-10c-6,-1 -17,-2 -23,-3c-7,0 -13,-7 -13,-14c0,-8 -7,-19 -16,-25c-18,-14 -59,-93 -59,-116c0,-11 -4,-10 -15,5c-18,24 -19,7 0,-26c8,-14 14,-35 15,-47c0,-29 33,-88 66,-118c26,-24 112,-61 167,-72c21,-4 25,-8 15,-15c-10,-7 -8,-8 5,-4c28,9 79,-5 73,-20c-3,-7 0,-16 6,-20c7,-5 8,-2 3,6c-5,9 -4,11 3,6c17,-10 15,-52 -3,-70c-9,-8 -32,-18 -52,-22c-41,-8 -153,10 -193,31c-15,8 -30,11 -34,8c-3,-4 -6,-1 -6,5c0,7 -6,12 -14,12c-16,0 -26,-30 -26,-82c0,-44 -9,-70 -21,-62c-5,3 -9,1 -9,-3c0,-25 131,-73 198,-73c18,0 31,-4 28,-9c-3,-4 5,-7 17,-5c185,26 232,44 286,105c53,62 66,157 31,234c-11,24 -25,47 -30,50c-6,4 -8,11 -5,16c3,5 -1,6 -10,2c-10,-3 -20,-2 -24,3c-12,18 -67,42 -152,68c-48,14 -93,34 -100,43c-11,13 -11,15 -1,9c11,-7 11,-4 0,13c-27,43 34,66 135,50c56,-9 129,-38 122,-48c-2,-4 10,-8 26,-9c16,-1 29,3 29,8c0,6 -5,8 -12,4c-8,-5 -9,5 -4,37c21,133 22,125 -21,147c-75,39 -214,52 -298,28z"/>
   <path id="svg_12" d="m5652,7008c-80,-24 -139,-81 -189,-178c-37,-74 -38,-77 -38,-190c0,-104 12,-170 34,-190c16,-14 40,-68 33,-75c-4,-5 -2,-5 5,-1c6,3 14,2 18,-4c11,-17 109,-79 135,-84c14,-2 48,-9 75,-14c67,-14 165,-6 247,18c72,22 101,43 94,69c-6,24 -20,115 -18,123c2,8 -26,0 -43,-12c-17,-13 -140,-40 -179,-40c-99,0 -165,40 -184,113l-10,37l213,0c132,0 216,-4 220,-10c7,-12 26,-14 23,-2c0,4 2,15 7,25c8,19 1,152 -11,202c-4,17 -7,41 -7,54c1,13 -2,19 -6,13c-4,-7 -14,2 -26,23c-61,115 -240,170 -393,123zm194,-169c8,-6 11,-15 8,-20c-3,-5 -2,-9 3,-8c23,4 31,-4 41,-41l10,-40l-134,0c-145,0 -145,0 -124,55c5,14 15,23 20,20c6,-4 10,-3 9,2c-4,23 4,33 34,42c37,12 114,6 133,-10z"/>
   <path id="svg_13" d="m6275,7024c-66,-9 -75,-14 -75,-37c0,-18 2,-19 11,-7c8,11 9,6 4,-20c-6,-35 -7,-529 -1,-607c2,-24 -1,-43 -5,-43c-5,0 -9,-6 -9,-14c0,-11 20,-14 103,-13l102,2l2,213c2,199 3,215 24,252c29,50 86,80 156,80l51,0l-1,98l-2,97l-65,-1c-54,0 -72,-5 -108,-29c-24,-16 -49,-39 -56,-52c-11,-22 -12,-21 -12,21c1,24 -2,47 -5,50c-8,8 -81,14 -114,10z"/>
   <path id="svg_14" d="m6668,7003c2,-13 8,-23 13,-23c5,0 9,-6 9,-14c0,-8 5,-27 12,-43c6,-15 12,-30 13,-33c4,-18 29,-87 34,-95c3,-5 6,-14 7,-20c1,-5 9,-30 18,-54c13,-36 14,-46 4,-53c-9,-5 -8,-8 5,-8c15,0 16,-2 5,-14c-7,-8 -16,-12 -19,-10c-3,2 -6,-3 -6,-11c0,-10 4,-12 12,-5c7,5 16,6 20,2c5,-4 5,-1 1,6c-4,6 -5,12 -2,12c3,0 16,-22 30,-50c14,-27 23,-50 21,-50c-3,0 4,-24 15,-52c23,-62 24,-66 8,-50c-15,15 -28,15 -28,1c0,-5 4,-8 9,-5c5,3 12,-1 15,-10c4,-9 9,-14 13,-11c8,9 44,-64 46,-96c3,-35 15,-39 145,-35l104,3l55,150c30,83 57,158 60,168c4,13 8,15 13,7c5,-8 9,-4 13,9c3,12 1,19 -4,15c-5,-3 -9,-3 -9,-1c0,8 57,160 99,266c29,70 39,107 32,114c-13,13 -190,12 -204,-2c-6,-6 -12,-16 -13,-23c-1,-7 -21,-66 -43,-130c-22,-65 -38,-118 -36,-118c2,0 -3,-16 -11,-35c-7,-19 -17,-51 -20,-72c-3,-20 -15,-59 -27,-85l-21,-47l-18,29c-10,17 -17,34 -16,38c1,4 -5,21 -12,37c-7,17 -13,49 -14,73c0,24 -2,38 -4,32c-6,-17 -22,0 -22,24c0,12 -3,26 -7,30c-5,4 -8,11 -9,14c0,4 -3,14 -6,22c-4,8 -18,53 -33,100c-42,135 -30,126 -149,125c-101,0 -102,0 -98,-22z"/>
   <path id="svg_15" d="m7549,7018c11,-15 11,-18 0,-18c-11,0 -11,-2 1,-10c13,-9 13,-11 0,-20c-8,-5 -21,-10 -27,-10c-7,0 -12,-3 -12,-7c1,-5 1,-19 -1,-33c-1,-23 -2,-23 -10,-5c-7,16 -9,17 -9,3c-1,-27 11,-51 19,-38c4,7 11,-9 15,-36c9,-60 13,-68 30,-54c8,7 20,8 26,4c7,-4 9,-3 5,4c-13,21 84,47 178,47c84,0 89,-2 112,-28c13,-16 24,-39 24,-51c0,-22 -4,-24 -87,-29c-49,-3 -97,-7 -108,-10c-11,-3 -39,-10 -63,-15c-24,-6 -61,-22 -82,-36c-38,-25 -83,-75 -78,-87c2,-3 -2,-12 -9,-20c-16,-20 -33,-127 -20,-132c5,-1 11,-12 12,-22c7,-66 69,-122 156,-142c98,-22 214,4 271,61l27,28l3,-44l3,-43l80,3c97,4 116,8 108,27c-3,8 -7,129 -9,267c-3,254 -5,310 -13,302c-4,-4 -41,52 -41,62c0,3 5,2 12,-2c7,-4 8,-3 4,5c-4,6 -11,9 -14,7c-9,-5 -84,49 -82,59c1,4 -2,10 -6,13c-4,4 -4,1 1,-7c6,-11 3,-13 -16,-8c-13,4 -28,7 -32,7c-5,0 -6,3 -3,8c5,8 -219,8 -244,0c-8,-3 -28,-8 -45,-13c-16,-4 -36,-12 -42,-18c-13,-9 -14,-8 -17,13c0,5 -8,15 -16,22c-12,11 -12,11 -1,-4zm351,-484l0,-65l-37,-16c-51,-21 -135,-31 -161,-20c-20,9 -20,11 -5,22c15,11 14,13 -7,11c-21,-1 -25,4 -28,32c-3,34 13,66 29,56c5,-3 8,0 7,7c-4,20 59,38 135,38l67,1l0,-66z"/>
   <path id="svg_16" d="m8470,7026c-4,-3 -23,-7 -43,-10c-58,-7 -126,-45 -157,-87c-15,-21 -29,-36 -32,-34c-3,3 -4,-5 -3,-18c1,-12 -3,-32 -8,-44c-7,-15 -6,-39 2,-75c7,-29 13,-61 14,-70c1,-9 3,-15 5,-13c3,2 23,-11 44,-30c41,-34 86,-54 188,-81c77,-21 100,-38 100,-75c0,-52 -77,-72 -192,-48c-58,11 -119,39 -112,50c2,4 -4,5 -15,2c-11,-3 -18,-14 -19,-31c0,-15 -3,-45 -6,-67c-4,-22 -7,-49 -9,-59c-1,-15 9,-24 41,-36c23,-9 41,-18 38,-21c-2,-2 8,-4 22,-5c55,-1 197,-16 206,-22c5,-3 6,0 2,6c-5,8 4,12 27,12c49,0 157,58 185,99c28,43 45,106 39,145c-9,56 -16,79 -28,87c-7,4 -9,15 -5,25c4,10 4,15 0,12c-3,-4 -21,3 -38,16c-17,13 -40,26 -51,30c-16,6 -17,9 -5,17c12,9 12,10 -3,5c-21,-7 -159,32 -153,42c2,4 -9,8 -26,8c-35,1 -49,19 -46,54c2,17 9,25 20,24c10,-1 16,2 13,6c-9,14 60,20 114,10c30,-5 56,-10 58,-10c2,0 1,-6 -3,-12c-5,-10 -4,-10 5,-2c14,13 61,-4 61,-22c0,-6 7,-11 15,-11c15,0 25,45 28,132l2,49l-54,22c-30,12 -48,24 -40,27c8,2 5,2 -6,0c-11,-3 -24,-4 -30,-4c-5,1 -39,4 -75,7c-36,3 -67,3 -70,0z"/>
   <path id="svg_17" d="m2818,5955c-2,-2 -80,-7 -173,-10c-94,-3 -230,-12 -304,-20c-73,-8 -138,-12 -143,-9c-5,3 -15,0 -23,-6c-8,-7 -26,-10 -40,-8c-14,3 -28,1 -31,-3c-3,-5 -16,-9 -30,-9c-14,0 -22,4 -19,10c3,6 2,10 -3,10c-6,0 -13,-7 -16,-16c-3,-9 -16,-14 -28,-13c-13,1 -30,-1 -38,-4c-15,-6 -189,-37 -225,-40c-11,-1 -22,-4 -25,-7c-4,-5 -149,-43 -175,-46c-5,0 -23,-6 -40,-13c-16,-7 -39,-14 -50,-16c-11,-1 -27,-5 -35,-9c-8,-3 -48,-17 -87,-30c-68,-23 -77,-23 -74,-3c0,4 -4,7 -9,7c-6,0 -10,-8 -8,-17c2,-10 -3,-17 -9,-16c-7,2 -13,-2 -13,-7c0,-6 -6,-10 -12,-10c-7,0 -70,-24 -140,-54c-93,-39 -130,-50 -138,-42c-8,8 -10,7 -5,-5c4,-12 -3,-20 -27,-30c-18,-8 -36,-13 -40,-11c-5,1 -8,-3 -8,-9c0,-5 -4,-7 -10,-4c-5,3 -10,3 -10,-2c0,-4 -36,-28 -80,-53c-83,-47 -89,-56 -68,-102c10,-20 21,-27 51,-30c21,-2 41,0 43,4c3,4 16,8 29,8c13,0 26,4 29,9c5,8 60,22 80,20c5,0 12,4 15,10c4,6 18,12 31,13c14,2 27,6 30,9c5,7 185,61 210,63c9,1 20,5 25,8c15,9 245,67 285,72c19,2 47,9 62,15c14,5 35,10 45,10c22,1 53,6 73,14c8,3 38,9 65,13c28,4 57,9 65,10c8,1 50,10 94,18c64,13 82,14 94,4c11,-9 14,-9 9,-1c-10,17 2,22 65,26c31,3 60,7 66,11c5,3 21,6 33,6c28,0 98,8 148,17c27,4 32,3 26,-8c-5,-8 1,-6 12,4c14,13 36,18 69,17c50,-1 95,3 174,14c42,6 84,9 370,23c101,5 104,5 90,-13c-13,-17 -12,-16 9,1c22,19 37,20 295,20c149,0 336,-4 416,-8c80,-4 168,-7 195,-7c28,1 102,-4 165,-10c63,-7 149,-14 190,-16c41,-2 86,-7 100,-10c14,-4 52,-8 85,-10c33,-2 96,-8 140,-14c146,-19 173,-19 168,1c-3,10 -8,18 -12,17c-3,0 -8,1 -11,2c-3,1 -14,3 -25,5c-54,10 -190,49 -193,57c-2,4 -8,6 -13,3c-7,-5 -94,15 -139,32c-8,3 -28,7 -45,9c-35,4 -123,23 -145,31c-8,3 -26,7 -40,8c-38,4 -301,44 -334,51c-21,5 -25,8 -15,15c8,5 9,9 4,9c-6,0 -15,-4 -21,-10c-9,-9 -271,12 -334,26c-32,8 -62,9 -375,18c-143,4 -272,9 -286,11c-15,2 -28,2 -31,0z"/>
  </g>
 </g>
</svg>